<?xml version="1.0" encoding="utf-8"?>
<!-- Generator: Adobe Illustrator 19.0.0, SVG Export Plug-In . SVG Version: 6.00 Build 0)  -->
<svg fill="#2e2424" version="1.1" id="Laag_1" xmlns="http://www.w3.org/2000/svg" xmlns:xlink="http://www.w3.org/1999/xlink" x="0px" y="0px"
	 viewBox="0 0 16 16" style="enable-background:new 0 0 16 16;" xml:space="preserve">
<style type="text/css">
	.st0{fill:#010202;}
	.st1{fill:#2F2525;}
</style>
<g id="XMLID_2_">
	<path id="XMLID_19_" class="st0" d="M16,0C10.7,0,5.3,0,0,0c0,0,0,0,0,0c0,0,0,0,0.1,0C5.4,0,10.7,0,16,0C16,0,16,0,16,0z"/>
	<path id="XMLID_18_" class="st1" d="M7.6,3.9c0.3,0,0.5,0,0.8,0c0.5,0,1,0,1.5,0c0,0,0.1,0,0.1,0.1c0.3,1,0.7,2,1,3
		c0.2,0.6,0.4,1.2,0.6,1.8c0,0,0,0,0,0.1c0.1-0.2,0.1-0.4,0.2-0.6c0.3-1,0.7-2,1-3.1c0.1-0.4,0.3-0.7,0.4-1.1c0-0.1,0-0.1,0.1-0.1
		c0.8,0,1.5,0,2.3,0c0,0,0,0,0.1,0c0,0.1-0.1,0.2-0.1,0.3c-0.2,0.5-0.4,1.1-0.6,1.6c-0.2,0.7-0.5,1.4-0.7,2.1
		c-0.3,0.9-0.6,1.8-0.9,2.6c-0.2,0.6-0.4,1.2-0.6,1.8c0,0,0,0.1-0.1,0.1c-0.7,0-1.4,0-2.1,0c0,0-0.1,0-0.1-0.1
		c-0.2-0.5-0.4-1.1-0.6-1.6C9.7,9.9,9.4,9,9.1,8.2C8.9,7.5,8.7,6.8,8.4,6.2C8.2,5.4,7.9,4.7,7.6,3.9C7.6,4,7.6,3.9,7.6,3.9z"/>
	<path id="XMLID_17_" class="st1" d="M7,6.7c0,0.8,0,1.6,0,2.5c0,0.9-0.3,1.6-0.9,2.3c-0.5,0.6-1.2,1-2,1.1c-1.5,0.2-3-0.7-3.5-2
		c-0.2-0.4-0.2-0.8-0.3-1.2c0-0.1,0-0.1,0.1-0.1c0.7,0,1.4,0,2.1,0c0,0,0.1,0,0.1,0.1c0,0.8,0.8,1.3,1.6,1c0.4-0.2,0.7-0.6,0.7-1
		c0-0.4,0-0.9,0-1.3c0-1.3,0-2.7,0-4c0-0.1,0-0.1,0.1-0.1c0.7,0,1.4,0,2,0C7,3.9,7,3.9,7,4C7,4.9,7,5.8,7,6.7z"/>
</g>
</svg>
